<svg xmlns="http://www.w3.org/2000/svg" width="960" height="260" viewBox="0 0 960 260">
  
  <g transform="translate(20,10)">

  <defs>
    <linearGradient id="g" x1="0" y1="0" x2="1" y2="1">
      <stop offset="0" stop-color="#23825A"/><stop offset="1" stop-color="#14503A"/>
    </linearGradient>
  </defs>
  <rect x="6" y="6" width="228" height="228" rx="56" fill="url(#g)"/>
  <rect x="6" y="6" width="228" height="228" rx="56" fill="none" stroke="#FFFFFF" stroke-opacity="0.12" stroke-width="3"/>
  <!-- bridge arch (setu) -->
  <path d="M56 108 Q120 34 184 108" fill="none" stroke="#FFF6E8" stroke-width="11" stroke-linecap="round"/>
  <!-- bridge suspension cables -->
  <rect x="83" y="84" width="7" height="24" rx="3.5" fill="#FFF6E8"/>
  <rect x="150" y="84" width="7" height="24" rx="3.5" fill="#FFF6E8"/>
  <!-- T crossbar -->
  <rect x="44" y="104" width="152" height="18" rx="9" fill="#FFF6E8"/>
  <!-- T stem -->
  <rect x="111" y="112" width="18" height="78" rx="9" fill="#FFF6E8"/>
  <!-- twin leaves -->
  <path d="M120 188 C 96 186, 76 168, 74 142 C 98 144, 116 162, 120 188 Z" fill="#F08A24"/>
  <path d="M120 188 C 144 186, 164 168, 166 142 C 142 144, 124 162, 120 188 Z" fill="#F08A24"/>
  <!-- node / sun at the top of the arch -->
  <circle cx="120" cy="50" r="11" fill="#F08A24"/>
</g>
  <g transform="translate(300,58)"><rect x="0" y="0" width="70" height="17" rx="8.5" fill="#1F3A5F"/><rect x="26.5" y="0" width="17" height="84" rx="8.5" fill="#1F3A5F"/><rect x="92" y="0" width="17" height="84" rx="8.5" fill="#1F3A5F"/><rect x="92" y="0" width="58" height="17" rx="8.5" fill="#1F3A5F"/><rect x="92" y="33.5" width="45.24" height="17" rx="8.5" fill="#1F3A5F"/><rect x="92" y="67" width="58" height="17" rx="8.5" fill="#1F3A5F"/><rect x="172" y="0" width="17" height="84" rx="8.5" fill="#F08A24"/><rect x="225" y="0" width="17" height="84" rx="8.5" fill="#F08A24"/><line x1="180.5" y1="8.5" x2="233.5" y2="75.5" stroke="#F08A24" stroke-width="18.700000000000003" stroke-linecap="round"/><rect x="264" y="0" width="17" height="84" rx="8.5" fill="#1F3A5F"/><rect x="264" y="0" width="58" height="17" rx="8.5" fill="#1F3A5F"/><rect x="264" y="33.5" width="45.24" height="17" rx="8.5" fill="#1F3A5F"/><rect x="264" y="67" width="58" height="17" rx="8.5" fill="#1F3A5F"/><rect x="344" y="0" width="70" height="17" rx="8.5" fill="#1F3A5F"/><rect x="370.5" y="0" width="17" height="84" rx="8.5" fill="#1F3A5F"/></g>
  <text x="302" y="206" font-family="DejaVu Sans, Arial, Helvetica, sans-serif" font-size="21" font-weight="700" letter-spacing="3.2" fill="#5B6B7C">TEAM · SMART INDIA HACKATHON 2026</text>
</svg>